# Blender v2.75 (sub 0) OBJ File: 'TNT Shield.blend'
# www.blender.org
mtllib TNT Shield.mtl
o Cylinder
v 1.055105 -1.241975 0.156435
v 0.853446 0.847126 0.156435
v 1.014008 -1.107222 0.309017
v 0.816910 0.844486 0.309017
v 0.950570 -1.001832 0.453991
v 0.757016 0.840158 0.453991
v 0.864004 -0.920767 0.587786
v 0.706471 0.926409 0.587786
v 0.755822 -0.837644 0.707107
v 0.621917 1.015080 0.707107
v 0.630710 -0.761818 0.809017
v 0.502905 1.006881 0.809017
v 0.492089 -0.699858 0.891007
v 0.369458 0.997238 0.891007
v 0.338006 -0.579022 0.951057
v 0.224862 0.986789 0.951057
v 0.173685 -0.422084 0.987688
v 0.072676 0.975793 0.987688
v -0.006083 -0.104816 1.000000
v -0.083352 0.964518 1.000000
v 0.957229 -1.297396 0.140791
v 0.753706 0.839919 0.140791
v 0.914461 -1.129780 0.278116
v 0.717170 0.837279 0.278116
v 0.853584 -1.064429 0.408592
v 0.657276 0.832951 0.408592
v 0.770688 -1.019559 0.529007
v 0.603482 0.909253 0.529007
v 0.664682 -0.963864 0.636396
v 0.522426 1.004748 0.636396
v 0.539927 -0.892984 0.728115
v 0.403165 0.999673 0.728115
v 0.400370 -0.818071 0.801906
v 0.269718 0.990031 0.801906
v 0.248604 -0.729300 0.855951
v 0.125122 0.979582 0.855951
v 0.089398 -0.643144 0.888920
v -0.027064 0.968585 0.888920
v -0.082138 -0.439792 0.900000
v -0.183092 0.957311 0.900000
v 1.083091 -1.535942 0.000000
v 0.865726 0.848014 0.000000
v 1.055105 -1.241975 -0.156435
v 0.853446 0.847126 -0.156435
v 1.014008 -1.107222 -0.309017
v 0.816910 0.844486 -0.309017
v 0.950570 -1.001832 -0.453991
v 0.757016 0.840158 -0.453991
v 0.864004 -0.920767 -0.587786
v 0.706471 0.926409 -0.587786
v 0.755822 -0.837644 -0.707107
v 0.621917 1.015080 -0.707107
v 0.630710 -0.761818 -0.809017
v 0.502905 1.006881 -0.809017
v 0.492089 -0.699858 -0.891007
v 0.369458 0.997238 -0.891007
v 0.338006 -0.579022 -0.951057
v 0.224862 0.986789 -0.951057
v 0.173685 -0.422084 -0.987688
v 0.072676 0.975793 -0.987688
v -0.006083 -0.104816 -1.000000
v -0.083352 0.964518 -1.000000
v 0.983351 -1.557512 0.000000
v 0.765986 0.840807 0.000000
v 0.957229 -1.297396 -0.140791
v 0.753706 0.839919 -0.140791
v 0.914461 -1.129780 -0.278116
v 0.717170 0.837279 -0.278116
v 0.853584 -1.064429 -0.408592
v 0.657276 0.832951 -0.408592
v 0.770688 -1.019559 -0.529007
v 0.603482 0.909253 -0.529007
v 0.664682 -0.963864 -0.636396
v 0.522426 1.004748 -0.636396
v 0.539927 -0.892984 -0.728115
v 0.403165 0.999673 -0.728115
v 0.400370 -0.818071 -0.801906
v 0.269718 0.990031 -0.801906
v 0.248604 -0.729300 -0.855951
v 0.125122 0.979582 -0.855951
v 0.089398 -0.643144 -0.888920
v -0.027064 0.968585 -0.888920
v -0.082138 -0.439792 -0.900000
v -0.183092 0.957311 -0.900000
vn -0.994800 -0.093200 -0.040700
vn -0.973800 -0.096100 -0.206100
vn -0.927600 -0.095500 -0.361300
vn -0.907500 -0.086400 -0.411000
vn -0.798100 -0.062900 -0.599300
vn -0.647800 -0.046800 -0.760400
vn -0.521100 -0.037700 -0.852600
vn -0.381700 -0.027600 -0.923900
vn -0.232800 -0.016800 -0.972400
vn -0.078300 -0.005700 -0.996900
vn 0.994400 0.092300 0.050700
vn 0.970200 0.094700 0.223200
vn 0.911700 0.092900 0.400200
vn 0.884200 0.084000 0.459600
vn 0.773700 0.061400 0.630600
vn 0.607900 0.043900 0.792800
vn 0.481700 0.034800 0.875700
vn 0.348400 0.025200 0.937000
vn 0.210600 0.015200 0.977400
vn 0.070500 0.005100 0.997500
vn 0.072100 -0.997400 0.000000
vn 0.055800 0.539000 -0.840500
vn -0.316600 0.749000 -0.582100
vn -0.148000 -0.859700 0.489000
vn 0.118200 0.415600 -0.901900
vn -0.309800 0.652100 -0.691900
vn -0.216900 -0.829200 0.515200
vn -0.110100 0.461500 -0.880300
vn 0.299400 0.243500 -0.922600
vn -0.230100 0.609500 -0.758700
vn 0.705300 0.051000 -0.707100
vn 0.072200 -0.997200 0.020500
vn -0.094200 0.675300 -0.731500
vn -0.127700 0.620800 -0.773500
vn -0.133500 0.814300 -0.565000
vn -0.994800 -0.093200 0.040700
vn -0.973800 -0.096100 0.206100
vn -0.927600 -0.095500 0.361300
vn -0.907500 -0.086400 0.411000
vn -0.798100 -0.062900 0.599300
vn -0.647800 -0.046800 0.760400
vn -0.521100 -0.037700 0.852600
vn -0.381700 -0.027600 0.923900
vn -0.232800 -0.016800 0.972400
vn -0.078300 -0.005700 0.996900
vn 0.994400 0.092300 -0.050700
vn 0.970200 0.094700 -0.223200
vn 0.911700 0.092900 -0.400200
vn 0.884200 0.084000 -0.459600
vn 0.773700 0.061400 -0.630600
vn 0.607900 0.043900 -0.792800
vn 0.481700 0.034800 -0.875700
vn 0.348400 0.025200 -0.937000
vn 0.210600 0.015200 -0.977400
vn 0.070500 0.005100 -0.997500
vn 0.055800 0.539000 0.840500
vn -0.316600 0.749000 0.582100
vn -0.148000 -0.859700 -0.489000
vn 0.118200 0.415600 0.901900
vn -0.309800 0.652100 0.691900
vn -0.216900 -0.829200 -0.515200
vn -0.110100 0.461500 0.880300
vn 0.299400 0.243500 0.922600
vn -0.230100 0.609500 0.758700
vn 0.705300 0.051000 0.707100
vn 0.072200 -0.997200 -0.020500
vn -0.094200 0.675300 0.731500
vn -0.127700 0.620800 0.773500
vn -0.133500 0.814300 0.565000
usemtl Material.001
s off
f 41//1 1//1 2//1 42//1
f 1//2 3//2 4//2 2//2
f 3//3 5//3 6//3 4//3
f 5//4 7//4 8//4 6//4
f 7//5 9//5 10//5 8//5
f 9//6 11//6 12//6 10//6
f 11//7 13//7 14//7 12//7
f 13//8 15//8 16//8 14//8
f 15//9 17//9 18//9 16//9
f 17//10 19//10 20//10 18//10
f 63//11 64//11 22//11 21//11
f 21//12 22//12 24//12 23//12
f 23//13 24//13 26//13 25//13
f 25//14 26//14 28//14 27//14
f 27//15 28//15 30//15 29//15
f 29//16 30//16 32//16 31//16
f 31//17 32//17 34//17 33//17
f 33//18 34//18 36//18 35//18
f 35//19 36//19 38//19 37//19
f 37//20 38//20 40//20 39//20
f 4//21 6//21 26//21 24//21
f 15//22 13//22 33//22 35//22
f 14//21 16//21 36//21 34//21
f 7//23 5//23 25//23 27//23
f 6//24 8//24 28//24 26//24
f 17//25 15//25 35//25 37//25
f 16//21 18//21 38//21 36//21
f 9//26 7//26 27//26 29//26
f 8//27 10//27 30//27 28//27
f 1//28 41//28 63//28 21//28
f 19//29 17//29 37//29 39//29
f 42//21 2//21 22//21 64//21
f 18//21 20//21 40//21 38//21
f 11//30 9//30 29//30 31//30
f 20//31 19//31 39//31 40//31
f 10//32 12//32 32//32 30//32
f 3//33 1//33 21//33 23//33
f 2//21 4//21 24//21 22//21
f 13//34 11//34 31//34 33//34
f 12//21 14//21 34//21 32//21
f 5//35 3//35 23//35 25//35
f 41//36 42//36 44//36 43//36
f 43//37 44//37 46//37 45//37
f 45//38 46//38 48//38 47//38
f 47//39 48//39 50//39 49//39
f 49//40 50//40 52//40 51//40
f 51//41 52//41 54//41 53//41
f 53//42 54//42 56//42 55//42
f 55//43 56//43 58//43 57//43
f 57//44 58//44 60//44 59//44
f 59//45 60//45 62//45 61//45
f 63//46 65//46 66//46 64//46
f 65//47 67//47 68//47 66//47
f 67//48 69//48 70//48 68//48
f 69//49 71//49 72//49 70//49
f 71//50 73//50 74//50 72//50
f 73//51 75//51 76//51 74//51
f 75//52 77//52 78//52 76//52
f 77//53 79//53 80//53 78//53
f 79//54 81//54 82//54 80//54
f 81//55 83//55 84//55 82//55
f 46//21 68//21 70//21 48//21
f 57//56 79//56 77//56 55//56
f 56//21 78//21 80//21 58//21
f 49//57 71//57 69//57 47//57
f 48//58 70//58 72//58 50//58
f 59//59 81//59 79//59 57//59
f 58//21 80//21 82//21 60//21
f 51//60 73//60 71//60 49//60
f 50//61 72//61 74//61 52//61
f 43//62 65//62 63//62 41//62
f 61//63 83//63 81//63 59//63
f 42//21 64//21 66//21 44//21
f 60//21 82//21 84//21 62//21
f 53//64 75//64 73//64 51//64
f 62//65 84//65 83//65 61//65
f 52//66 74//66 76//66 54//66
f 45//67 67//67 65//67 43//67
f 44//21 66//21 68//21 46//21
f 55//68 77//68 75//68 53//68
f 54//21 76//21 78//21 56//21
f 47//69 69//69 67//69 45//69
